<?xml version="1.0" standalone="no"?>
<!DOCTYPE svg PUBLIC "-//W3C//DTD SVG 20010904//EN"
 "http://www.w3.org/TR/2001/REC-SVG-20010904/DTD/svg10.dtd">
<svg version="1.0" xmlns="http://www.w3.org/2000/svg"
 width="855.000000pt" height="855.000000pt" viewBox="0 0 855.000000 855.000000"
 preserveAspectRatio="xMidYMid meet">
<metadata>
Created by potrace 1.14, written by Peter Selinger 2001-2017
</metadata>
<g transform="translate(0.000000,855.000000) scale(0.100000,-0.100000)"
fill="#000000" stroke="none">
<path d="M2934 6571 c-2 -3 -280 -6 -617 -7 -336 -1 -630 -5 -652 -7 -117 -15
-147 -20 -226 -38 -594 -130 -1020 -549 -1075 -1057 -47 -438 125 -749 454
-817 102 -22 259 -15 342 15 227 81 371 264 364 465 -3 87 -33 155 -125 280
-97 132 -117 169 -133 249 -30 146 49 320 187 414 165 113 450 131 630 40 104
-52 170 -155 166 -257 -2 -50 -29 -149 -49 -176 -4 -5 -33 -59 -65 -120 -32
-60 -65 -123 -75 -140 -9 -16 -39 -70 -65 -120 -27 -49 -105 -196 -175 -325
-70 -129 -143 -264 -162 -300 -19 -36 -51 -95 -71 -132 -20 -38 -53 -98 -73
-135 -20 -38 -49 -90 -64 -118 -15 -27 -45 -84 -67 -125 -22 -41 -70 -129
-105 -195 -36 -66 -87 -160 -113 -210 -26 -49 -56 -103 -65 -120 -10 -16 -39
-70 -65 -120 -26 -49 -62 -117 -80 -150 -77 -141 -165 -306 -205 -380 -120
-225 -145 -265 -217 -356 -29 -36 -75 -85 -104 -110 -45 -38 -204 -149 -215
-149 -2 0 -27 -15 -56 -32 -136 -83 -186 -180 -142 -273 19 -40 91 -75 174
-83 75 -8 772 -7 837 0 101 12 179 64 200 133 24 77 -5 151 -91 233 -73 70
-90 159 -52 277 22 69 94 218 195 404 28 52 51 96 51 99 0 2 14 22 31 43 49
62 101 84 229 97 102 10 1258 9 1345 -2 39 -4 93 -19 122 -32 53 -26 75 -58
88 -135 3 -18 8 -36 11 -41 3 -4 7 -16 9 -25 1 -10 15 -58 29 -108 88 -312 54
-437 -162 -578 -62 -40 -110 -91 -128 -134 -22 -51 -22 -125 0 -158 23 -34 93
-66 165 -73 72 -8 1228 -8 1301 0 162 17 240 89 240 223 0 56 -28 96 -102 146
-91 61 -181 157 -217 231 -24 48 -99 311 -126 438 -2 8 -40 161 -85 340 -45
179 -83 332 -85 340 -2 8 -17 67 -34 130 -16 63 -32 126 -35 140 -2 14 -21 88
-41 165 -20 77 -38 147 -40 155 -2 8 -38 152 -80 320 -42 168 -78 312 -80 320
-2 8 -8 35 -15 60 -7 25 -14 52 -15 60 -2 8 -34 132 -70 275 -82 321 -104 453
-102 605 2 110 4 119 37 185 28 56 51 84 116 140 88 75 108 107 107 166 -2 78
-61 130 -163 145 -59 8 -638 13 -646 5z m-258 -1586 c58 -231 110 -438 115
-460 5 -22 14 -58 19 -80 6 -22 15 -58 20 -80 6 -22 14 -58 20 -80 6 -22 12
-47 14 -55 2 -8 18 -71 36 -140 65 -256 77 -317 64 -338 -13 -20 -69 -41 -134
-49 -64 -8 -802 -10 -940 -2 -142 8 -188 21 -197 57 -7 29 13 71 178 377 50
94 116 217 146 275 31 58 68 128 83 155 15 28 67 124 115 215 99 185 145 272
185 345 15 28 53 100 85 160 61 116 78 143 82 129 1 -5 50 -198 109 -429z"/>
<path d="M6441 6560 c-21 -8 -47 -22 -58 -30 -11 -8 -89 -105 -174 -215 -84
-110 -159 -207 -166 -215 -6 -8 -116 -150 -243 -315 -128 -165 -239 -309 -248
-320 -10 -11 -53 -67 -97 -125 -43 -58 -82 -107 -85 -110 -3 -3 -25 -32 -50
-65 -25 -33 -63 -83 -85 -111 -22 -28 -52 -66 -66 -85 -15 -19 -105 -135 -200
-259 -96 -124 -183 -237 -194 -251 -31 -41 -406 -526 -528 -683 -67 -86 -106
-145 -103 -155 6 -21 57 -221 61 -241 2 -8 11 -44 20 -80 9 -36 19 -74 21 -85
3 -11 24 -96 47 -188 l43 -169 40 49 c22 26 136 172 254 323 118 151 216 277
219 280 3 3 35 43 71 90 35 47 67 87 70 90 5 5 40 49 90 115 14 18 77 99 140
180 63 80 274 350 468 598 195 249 364 466 377 482 13 17 59 75 102 130 42 55
80 102 83 105 3 3 25 32 50 65 25 33 47 62 50 65 3 3 52 65 109 138 57 73 105
131 106 130 2 -2 6 -30 9 -63 4 -33 9 -67 11 -75 2 -8 6 -42 10 -75 3 -33 8
-67 10 -75 2 -8 6 -42 10 -75 3 -33 8 -67 10 -75 2 -8 6 -40 10 -71 3 -31 7
-65 9 -75 2 -11 7 -46 10 -79 4 -33 9 -67 11 -75 2 -8 6 -40 10 -71 3 -31 7
-65 9 -75 2 -11 7 -46 10 -79 4 -33 9 -67 11 -75 2 -8 6 -40 10 -70 3 -30 7
-66 10 -80 2 -14 11 -81 20 -150 9 -69 18 -136 20 -150 3 -22 14 -99 30 -220
2 -19 12 -87 20 -150 9 -63 18 -133 20 -155 4 -36 9 -70 20 -145 2 -14 7 -50
10 -80 4 -30 9 -62 10 -71 2 -9 6 -40 10 -70 3 -30 8 -66 11 -80 2 -15 6 -47
9 -70 18 -140 35 -268 40 -299 12 -69 19 -154 18 -240 0 -152 -42 -235 -168
-335 -34 -27 -70 -61 -78 -75 -45 -74 -16 -168 60 -202 65 -29 114 -32 463
-31 330 0 383 4 431 28 28 15 59 61 53 80 -1 6 -5 27 -9 48 -8 49 -49 95 -137
153 -191 126 -268 258 -302 519 -9 70 -37 269 -42 300 -3 17 -7 48 -9 70 -2
22 -6 49 -8 60 -3 11 -8 49 -12 85 -4 36 -8 67 -10 70 -2 3 -6 30 -9 60 -4 30
-8 66 -10 80 -3 14 -7 48 -11 75 -8 68 -12 96 -26 190 -13 95 -12 87 -33 245
-16 118 -22 161 -31 220 -2 14 -9 63 -15 110 -6 47 -13 96 -15 109 -2 13 -7
45 -11 70 -3 25 -7 56 -9 67 -2 12 -7 48 -10 80 -4 33 -9 66 -11 76 -1 9 -5
36 -8 60 -3 23 -15 108 -26 188 -11 80 -22 161 -25 180 -2 19 -13 100 -25 180
-11 80 -23 163 -25 185 -7 50 -15 111 -21 150 -43 269 2 428 144 502 52 28 76
36 137 49 26 6 194 6 220 0 65 -14 85 -20 135 -39 137 -52 238 -156 270 -277
33 -121 6 -241 -85 -381 -77 -119 -96 -157 -109 -222 -30 -148 52 -322 192
-404 186 -109 449 -76 602 77 67 67 101 122 137 226 25 72 27 92 27 234 1 119
-3 173 -18 235 -11 44 -23 84 -28 90 -4 5 -8 16 -8 25 0 25 -82 180 -130 244
-96 130 -256 262 -412 338 -140 69 -351 126 -528 144 -41 4 -270 8 -508 8
-366 1 -439 -1 -471 -14z"/>
</g>
</svg>
